<svg width="84" height="106" viewBox="0 0 84 106" fill="none" xmlns="http://www.w3.org/2000/svg">
<g clip-path="url(#clip0_62_925)">
<path d="M52.2783 93.5182C50.7793 97.2355 49.7885 101.27 49.4089 105.5L81.1299 97.9584C82.6288 94.2419 83.6189 90.207 83.9993 85.9766L52.2783 93.5182Z" fill="#634832"/>
<path d="M81.1281 75.3645C82.6271 71.648 83.6179 67.6131 83.9975 63.3827L59.2879 69.2603V57.9613L81.1274 52.7706C82.6263 49.0541 83.6172 45.0192 83.9968 40.7888L59.2871 46.6614V6.02667C55.5009 8.40431 52.1383 11.5692 49.4049 15.3024V49.0115L39.5227 51.3607V0.5C35.7364 2.87681 32.3739 6.04255 29.6405 9.77574V53.7091L7.52894 58.9642C6.02998 62.6807 5.03839 66.7155 4.65805 70.946L29.6405 65.0082V79.2373L2.86692 85.6005C1.36796 89.317 0.377125 93.3519 -0.00247192 97.5823L28.0219 90.9216C30.3033 90.3909 32.264 88.8824 33.5388 86.8064L38.6783 78.2845V78.2829C39.2118 77.4012 39.5227 76.3381 39.5227 75.1932V62.6589L49.4049 60.3097V82.9078L81.1274 75.3628L81.1281 75.3645Z" fill="#634832"/>
</g>
<defs>
<clipPath id="clip0_62_925">
<rect width="84" height="105" fill="white" transform="translate(0 0.5)"/>
</clipPath>
</defs>
</svg>
